<svg id="Lager_1" data-name="Lager 1" xmlns="http://www.w3.org/2000/svg" viewBox="0 0 142 142"><title>26Rityta 1</title><path d="M141.5,82c0-3.71-2.57-6.49-7.68-8.34v-.45c0-.91,0-1.86,0-2.85a63,63,0,0,0-1.54-13.78c6-4.72,6.28-8.56,5.4-11-1.28-3.53-5.34-5.28-11.48-5.25A62.74,62.74,0,0,0,71.26,7.58h-.52A62.75,62.75,0,0,0,15.81,40.39c-6.14,0-10.2,1.72-11.48,5.25-.88,2.41-.62,6.25,5.4,11A63,63,0,0,0,8.19,70.39c0,1,0,1.86,0,2.73v.57C3.07,75.54.5,78.32.5,82c0,4.06,3,6.73,9.61,8.25,2.1,5.79,6.2,11.73,16,23.19a19,19,0,0,0,9.91,6c4.11,1,5.56,2.74,7.57,5.11,4.72,5.56,9.73,9.81,27.45,9.81s22.73-4.25,27.45-9.81c2-2.37,3.46-4.09,7.58-5.11a19,19,0,0,0,9.9-6c9.76-11.46,13.85-17.4,16-23.19C138.55,88.76,141.5,86.09,141.5,82ZM125,61.19a55.28,55.28,0,0,1,.78,9.2v1.43A102.45,102.45,0,0,0,111.43,71c-4.84,0-9.62.19-14.09.55a136.19,136.19,0,0,0,13.59-4.18A113.28,113.28,0,0,0,125,61.19ZM133,47.35c.32.9-.57,2.9-4.14,5.6-4.17,3.16-11,6.51-19.63,9.67a110.23,110.23,0,0,1-23.14,6c-1.63-2.23-2.49-4.13-2.49-5.54a13.55,13.55,0,0,1,.34-3,112.13,112.13,0,0,1,20.77-9.85C124.05,43.14,132.22,45.29,133,47.35Zm-30-1.84a134.42,134.42,0,0,0-14.14,6.08c5.6-5.84,15.26-10.53,27.05-12.67.55.79,1.09,1.6,1.61,2.42A97.14,97.14,0,0,0,103,45.51ZM26.12,38.92c11.78,2.14,21.45,6.83,27.05,12.66A136.55,136.55,0,0,0,39,45.51a97.14,97.14,0,0,0-14.52-4.17C25,40.52,25.57,39.71,26.12,38.92ZM9,47.35c.76-2.06,8.93-4.21,28.3,2.86a111.9,111.9,0,0,1,20.75,9.85,13,13,0,0,1,.35,3c0,1.41-.86,3.31-2.49,5.54a110.23,110.23,0,0,1-23.14-6C24.12,59.46,17.33,56.11,13.16,53,9.59,50.25,8.7,48.25,9,47.35Zm7.17,23a55.46,55.46,0,0,1,.78-9.2,113.28,113.28,0,0,0,14.1,6.13A136.19,136.19,0,0,0,44.66,71.5c-4.47-.36-9.25-.55-14.09-.55a102.45,102.45,0,0,0-14.38.87ZM5.5,82c0-.62.7-6.08,25.07-6.08A167.78,167.78,0,0,1,48,76.83a126.31,126.31,0,0,1-13.28,10c-1.39,0-2.78,0-4.18,0C7.31,86.88,5.5,83.17,5.5,82Zm21.2,9.81c-1.67,1-3.4,2-5.18,2.94-.79-1.16-1.45-2.23-2-3.24Q22.79,91.78,26.7,91.84ZM71,126.42c-15.42,0-18.3-3.39-21.34-7l-.38-.45H92.72l-.38.45C89.3,123,86.42,126.42,71,126.42Zm38.84-18.14a11,11,0,0,1-5.75,3.46l-.94.25H38.85l-.93-.25a11,11,0,0,1-5.76-3.46c-2.25-2.64-4.17-5-5.82-7C45.7,90.53,66.42,74.94,66.42,63c0-13.93-13.87-26.13-34.51-31.08a54.83,54.83,0,0,1,78.18,0C89.45,36.91,75.58,49.11,75.58,63c0,11.9,20.72,27.49,40.08,38.22C114,103.33,112.09,105.64,109.84,108.28Zm10.64-13.5c-1.78-1-3.51-2-5.18-2.94q3.92-.06,7.2-.3C121.93,92.55,121.27,93.62,120.48,94.78Zm-9-7.9c-1.4,0-2.79,0-4.18,0A126.31,126.31,0,0,1,94,76.83,167.78,167.78,0,0,1,111.43,76C135.8,76,136.5,81.41,136.5,82,136.5,83.17,134.69,86.88,111.43,86.88Z"/><path d="M71,73.78C65.35,73.52,60.24,81,57.56,87.56a33.26,33.26,0,0,0-2.65,11.53c-.11,6.11,2.64,8.15,4.29,8.83,3.74,1.53,8.06-.93,11.8-6.49,3,4.47,6.39,6.93,9.54,6.93a5.91,5.91,0,0,0,2.26-.44c1.65-.68,4.4-2.72,4.29-8.83a33.26,33.26,0,0,0-2.65-11.53C81.75,81,76.67,73.53,71,73.78ZM80,101c-1.11-.78-3.15-2.87-5.15-6.92a4.29,4.29,0,0,0-7.68,0c-2,4-4,6.14-5.15,6.92-.33-1.7-.07-5.66,2-10.79,2.47-6,5.61-9.12,6.75-9.43l.21,0,.21,0c1.14.31,4.28,3.4,6.75,9.43C80.06,95.34,80.32,99.3,80,101Z"/></svg>