<svg id="Lager_1" data-name="Lager 1" xmlns="http://www.w3.org/2000/svg" viewBox="0 0 142 142"><title>15Rityta 1</title><path d="M71,7.82l54.71,31.59v63.18L71,134.18,16.29,102.59V39.41L71,7.82M71-.5,9.08,35.25v71.5L71,142.5l61.92-35.75V35.25L71-.5Z"/><path d="M77.85,87.55A15.12,15.12,0,0,1,58,73.16a14.62,14.62,0,0,1,.25-2.66,13.87,13.87,0,0,1,.41-1.69l6.58,6.58A7.16,7.16,0,1,0,75.39,65.27l-6.58-6.58a13.59,13.59,0,0,1,1.7-.41A14.43,14.43,0,0,1,73.16,58,15.12,15.12,0,0,1,87.55,77.85l13.31,13.32a36,36,0,1,0-9.69,9.69Z"/></svg>