<svg id="Lager_1" data-name="Lager 1" xmlns="http://www.w3.org/2000/svg" viewBox="0 0 142 142"><title>36Rityta 1</title><path d="M64.52,100.13C108.67,93.3,144.2,51.45,138.43,4,91-1.74,49.17,33.8,42.33,78Z"/><path d="M62.11,27.82C34.74,41.06-1.52,62.13,2.28,65.48c5.38-1.85,32.41-3.1,36.71,9A88.23,88.23,0,0,1,62.11,27.82Z"/><path d="M114.65,80.36A88.33,88.33,0,0,1,68,103.48c12,4.3,10.81,31.32,9,36.71C80.34,144,101.4,107.72,114.65,80.36Z"/><polygon points="33.79 108.97 41.2 81.32 61.44 101.56 33.79 108.97"/></svg>