<svg id="Lager_1" data-name="Lager 1" xmlns="http://www.w3.org/2000/svg" viewBox="0 0 142 142"><title>31Rityta 1</title><path d="M134.47,1.15C124,.86,88.62,1,74.36,14.87a22.35,22.35,0,0,0-2.86,3.36,23.15,23.15,0,0,0-2.88-3.38C54.25.9,18.73.84,8.18,1.16A5.67,5.67,0,0,0,2.66,6.85V118.33a5.75,5.75,0,0,0,1.8,4.16A5.67,5.67,0,0,0,8.7,124c8.06-.49,48.83-2.14,60,13.43l2.85,4,2.85-4c8.55-12,36.39-14.8,59.6-13.45a6.05,6.05,0,0,0,6.39-6V7.19A6,6,0,0,0,134.47,1.15ZM19.26,116.71c-3.82,0-7.12.12-9.6.25V8.12c20.07-.45,44.43,2.39,54.08,11.75A13,13,0,0,1,68,29.59v97.66C55.3,118.37,33.63,116.71,19.26,116.71Zm114.08.24c-13.92-.73-42.79-.71-58.34,10.27V29.59a13,13,0,0,1,4.24-9.71c9.62-9.35,34.07-12.2,54.1-11.76Z"/></svg>