<svg xmlns="http://www.w3.org/2000/svg" viewBox="0 0 256 256">
  <rect x="110.94" y="36.75" width="20" height="195.67" transform="translate(-59.76 125.35) rotate(-45.13)"/>
  <path d="M117.26,88.59a40.5,40.5,0,0,1,50.2,50l27,26.9a212,212,0,0,0,51-38C213.17,95.17,171.33,72,129,72a125.28,125.28,0,0,0-25.65,2.74Z"/>
  <path d="M157,156.32A40.49,40.49,0,0,1,99.56,99.18l-18.12-18C55.83,90.8,31.63,107.37,11.5,127.5,43.71,159.71,85.83,182.87,128,183a133.73,133.73,0,0,0,46.91-8.81Z"/>
  <path d="M156,127.14A27.49,27.49,0,0,0,128.73,100Z"/>
  <path d="M108.77,108.35a27.49,27.49,0,0,0,39,38.8Z"/>
</svg>
