<svg xmlns="http://www.w3.org/2000/svg" viewBox="0 0 142 142">
  <path d="M130.84,82.68a13.18,13.18,0,0,1,0-23.36,7.53,7.53,0,0,0,3.8-9,66.65,66.65,0,0,0-14-24.14A7.48,7.48,0,0,0,111,25,13.19,13.19,0,0,1,90.81,13.35,7.51,7.51,0,0,0,85,5.58a67.07,67.07,0,0,0-28,0,7.51,7.51,0,0,0-5.81,7.77A13.17,13.17,0,0,1,31,25a7.47,7.47,0,0,0-9.62,1.15,66.65,66.65,0,0,0-14,24.14,7.53,7.53,0,0,0,3.8,9,13.18,13.18,0,0,1,0,23.36,7.53,7.53,0,0,0-3.8,9,66.65,66.65,0,0,0,14,24.14A7.48,7.48,0,0,0,31,117a13.18,13.18,0,0,1,20.21,11.68A7.51,7.51,0,0,0,57,136.42a67.07,67.07,0,0,0,28,0,7.51,7.51,0,0,0,5.81-7.77A13.17,13.17,0,0,1,111,117a7.47,7.47,0,0,0,9.62-1.15,66.65,66.65,0,0,0,14-24.14A7.53,7.53,0,0,0,130.84,82.68ZM71,91.33A20.33,20.33,0,1,1,91.33,71,20.33,20.33,0,0,1,71,91.33Z"/>
</svg>
