<svg id="Lager_1" data-name="Lager 1" xmlns="http://www.w3.org/2000/svg" viewBox="0 0 142 142"><defs><style>.cls-1{stroke:#000;stroke-miterlimit:10;stroke-width:8px;}</style></defs><title>23Rityta 1</title><path class="cls-1" d="M130.84,82.68a13.18,13.18,0,0,1,0-23.36,7.53,7.53,0,0,0,3.8-9,66.65,66.65,0,0,0-14-24.14A7.48,7.48,0,0,0,111,25,13.18,13.18,0,0,1,90.81,13.35,7.51,7.51,0,0,0,85,5.58a67,67,0,0,0-28,0,7.51,7.51,0,0,0-5.81,7.77A13.18,13.18,0,0,1,31,25a7.48,7.48,0,0,0-9.62,1.15,66.65,66.65,0,0,0-14,24.14,7.53,7.53,0,0,0,3.8,9,13.18,13.18,0,0,1,0,23.36,7.53,7.53,0,0,0-3.8,9,66.65,66.65,0,0,0,14,24.14A7.48,7.48,0,0,0,31,117a13.18,13.18,0,0,1,20.21,11.68A7.51,7.51,0,0,0,57,136.42a67,67,0,0,0,28,0,7.51,7.51,0,0,0,5.81-7.77A13.18,13.18,0,0,1,111,117a7.48,7.48,0,0,0,9.62-1.15,66.65,66.65,0,0,0,14-24.14A7.53,7.53,0,0,0,130.84,82.68ZM72,104.45a34,34,0,1,1,34-34A34,34,0,0,1,72,104.45Z"/></svg>