<svg xmlns="http://www.w3.org/2000/svg" viewBox="0 0 142 142">
  <path d="M71,137.7A66.51,66.51,0,0,1,57,136.22a11.6,11.6,0,0,1-9-12A7.48,7.48,0,0,0,46.83,120a7.61,7.61,0,0,0-10.47-2.36,11.5,11.5,0,0,1-14.82-1.91,66.12,66.12,0,0,1-14-24.09,11.59,11.59,0,0,1,5.86-13.93,7.45,7.45,0,0,0,3.14-3.17,7.57,7.57,0,0,0-3.21-10.24,11.56,11.56,0,0,1-5.8-13.86,66.15,66.15,0,0,1,14-24.11,11.54,11.54,0,0,1,14.86-1.85A7.6,7.6,0,0,0,48,17.74,11.58,11.58,0,0,1,57,5.79a66.52,66.52,0,0,1,28,0,11.59,11.59,0,0,1,9,12,7.58,7.58,0,0,0,11.59,6.68,11.53,11.53,0,0,1,14.87,1.87,66.12,66.12,0,0,1,14,24.09,11.59,11.59,0,0,1-5.86,13.93,7.59,7.59,0,0,0,0,13.4,11.57,11.57,0,0,1,5.8,13.92,66,66,0,0,1-14,24.09,11.55,11.55,0,0,1-14.87,1.85A7.6,7.6,0,0,0,94,124.26a11.58,11.58,0,0,1-9,12A67.77,67.77,0,0,1,71,137.7ZM40.41,107.16a16.86,16.86,0,0,1,16.86,17.53,2.34,2.34,0,0,0,1.79,2.48,57.2,57.2,0,0,0,24,0,2.3,2.3,0,0,0,1.73-2.39v-.11a16.87,16.87,0,0,1,25.84-14.9l.09.06a2.3,2.3,0,0,0,3-.36,56.9,56.9,0,0,0,12-20.67,2.33,2.33,0,0,0-1.19-2.8l-.06,0a16.88,16.88,0,0,1,0-29.9,2.35,2.35,0,0,0,1.25-2.83,56.63,56.63,0,0,0-12-20.68,2.27,2.27,0,0,0-2.94-.34l-.09,0a16.87,16.87,0,0,1-25.84-14.9v-.11a2.32,2.32,0,0,0-1.8-2.41,57.3,57.3,0,0,0-24,0,2.31,2.31,0,0,0-1.73,2.39v.11a16.87,16.87,0,0,1-25.84,14.9l-.09-.06a2.3,2.3,0,0,0-3,.36,56.9,56.9,0,0,0-12,20.67A2.35,2.35,0,0,0,17.58,56a16.87,16.87,0,0,1,.07,29.93,2.35,2.35,0,0,0-1.25,2.84,56.67,56.67,0,0,0,12,20.67,2.27,2.27,0,0,0,2.94.36A17,17,0,0,1,40.41,107.16ZM71,94.5A23.5,23.5,0,1,1,94.49,71,23.52,23.52,0,0,1,71,94.5Zm0-37.72A14.22,14.22,0,1,0,85.21,71,14.24,14.24,0,0,0,71,56.78Z"/>
</svg>
