<svg version="1.1"
	 xmlns="http://www.w3.org/2000/svg" xmlns:xlink="http://www.w3.org/1999/xlink" xmlns:a="http://ns.adobe.com/AdobeSVGViewerExtensions/3.0/"
	 x="0px" y="0px" width="349px" height="403px" viewBox="0 0 349 403" style="enable-background:new 0 0 349 403;"
	 xml:space="preserve">
<style type="text/css">
	.st0{fill:#181825;}
	.st1{fill:url(#SVGID_1_);}
	.st2{fill:url(#SVGID_2_);}
	.st3{fill:url(#SVGID_3_);}
	.st4{fill:url(#SVGID_4_);}
</style>
<defs>
</defs>
<g>
	<polygon class="st0" points="349,100.8 174.5,0 0,100.8 0,302.3 174.5,403 349,302.3 	"/>
	<linearGradient id="SVGID_1_" gradientUnits="userSpaceOnUse" x1="261.7562" y1="50.375" x2="87.2521" y2="352.625">
		<stop  offset="0.2256" style="stop-color:#695CFF"/>
		<stop  offset="1" style="stop-color:#E155FF"/>
	</linearGradient>
	<path class="st1" d="M174.5,23.1L329,112.3v178.4l-154.5,89.2L20,290.7V112.3L174.5,23.1 M174.5,0L0,100.8v201.5L174.5,403
		L349,302.3V100.8L174.5,0L174.5,0z"/>
</g>
<g>
	<linearGradient id="SVGID_2_" gradientUnits="userSpaceOnUse" x1="124.9093" y1="284.5458" x2="222.009" y2="116.3643">
		<stop  offset="8.717949e-02" style="stop-color:#5378FF"/>
		<stop  offset="1" style="stop-color:#E155FF"/>
	</linearGradient>
	<path class="st2" d="M176.4,95.8c1.1,0,2,0.9,2,2v18.5c0,3.9,2.3,5.6,4.5,5.6c1.4,0,2.8-0.7,4.2-2l11.7-11.7
		c0.4-0.4,0.9-0.6,1.4-0.6s1,0.2,1.4,0.6l4.2,4.2c0.4,0.4,0.6,0.9,0.6,1.4c0,0.5-0.2,1-0.6,1.4l-19.7,19.7l-3,3l-2.2,2.2
		c-2,2-2.5,6.5-2.5,8.8v16.8c0,3.9,2.7,8,6.3,9.6l5,2.9c1.7,1.2,4,1.9,6.3,1.9c1.9,0,3.7-0.4,5.1-1.3l14.5-8.4
		c2-1.2,5.6-3.8,6.3-6.6l0.7-2.7l1.2-4.3l7.2-26.9c0.2-0.9,1-1.5,1.9-1.5c0.2,0,0.3,0,0.5,0.1l5.7,1.5c0.5,0.1,0.9,0.5,1.2,0.9
		c0.3,0.5,0.3,1,0.2,1.5l-4.3,16c-0.7,2.6,0,4.2,0.7,5.1c0.8,1,2.1,1.6,3.4,1.6c1.1,0,2.2-0.3,3.3-1l16-9.2c0.3-0.2,0.6-0.3,1-0.3
		c0.7,0,1.4,0.4,1.7,1l3,5.1c0.3,0.5,0.3,1,0.2,1.5s-0.5,1-0.9,1.2l-16,9.2c-3.2,1.8-3.2,4.2-3.1,5.1c0.1,0.9,0.8,3.2,4.3,4.2
		l16,4.3c0.5,0.1,0.9,0.5,1.2,0.9c0.3,0.5,0.3,1,0.2,1.5l-1.5,5.7c-0.2,0.9-1,1.5-1.9,1.5c-0.2,0-0.3,0-0.5-0.1l-26.9-7.2l-5.6-1.5
		l-1.5-0.4c-0.4-0.1-0.9-0.2-1.4-0.2c-2,0-4.9,0.9-7.4,2.4l-14.5,8.4c-3.4,2-5.5,6.5-4.8,10.4c0,0.2,0,0.9,0,2.7c0,1.8,0,2.5,0,2.7
		c-0.7,3.9,1.4,8.4,4.8,10.4l14.5,8.4c2.5,1.4,5.4,2.4,7.4,2.4c0.5,0,1-0.1,1.4-0.2l1.9-0.5l5.2-1.4l26.9-7.2c0.2,0,0.3-0.1,0.5-0.1
		c0.9,0,1.7,0.6,1.9,1.5l1.5,5.7c0.1,0.5,0.1,1-0.2,1.5c-0.3,0.5-0.7,0.8-1.2,0.9l-16,4.3c-3.5,1-4.2,3.2-4.3,4.2
		c-0.1,0.9-0.1,3.3,3.1,5.1l16,9.2c0.5,0.3,0.8,0.7,0.9,1.2s0.1,1.1-0.2,1.5l-3,5.1c-0.4,0.6-1,1-1.7,1c-0.4,0-0.7-0.1-1-0.3
		l-16-9.2c-1.2-0.7-2.3-1-3.3-1c-1.4,0-2.6,0.6-3.4,1.6c-0.7,0.9-1.4,2.5-0.7,5.1l4.3,16c0.1,0.5,0.1,1-0.2,1.5
		c-0.3,0.5-0.7,0.8-1.2,0.9l-5.7,1.5c-0.2,0-0.3,0.1-0.5,0.1c-0.9,0-1.7-0.6-1.9-1.5l-7.2-26.9l-0.7-2.6l-1.2-4.5
		c-0.7-2.7-4.3-5.4-6.3-6.6l-14.5-8.4c-1.5-0.8-3.2-1.3-5.1-1.3c-2.3,0-4.6,0.7-6.3,1.9l-5,2.9c-3.6,1.6-6.3,5.7-6.3,9.6v16.8
		c0,2.3,0.5,6.8,2.5,8.8l1,1l4.2,4.2l19.7,19.7c0.8,0.8,0.8,2.1,0,2.8l-4.2,4.2c-0.4,0.4-0.9,0.6-1.4,0.6s-1-0.2-1.4-0.6L187.1,281
		c-1.3-1.3-2.7-2-4.2-2c-2.2,0-4.5,1.7-4.5,5.6v18.5c0,1.1-0.9,2-2,2h-5.9c-1.1,0-2-0.9-2-2v-18.5c0-3.9-2.3-5.6-4.5-5.6
		c-1.4,0-2.8,0.7-4.2,2l-11.7,11.7c-0.4,0.4-0.9,0.6-1.4,0.6c-0.5,0-1-0.2-1.4-0.6l-4.2-4.2c-0.8-0.8-0.8-2.1,0-2.8l19.7-19.7
		l4.5-4.5l0.7-0.7c2-2,2.5-6.5,2.5-8.8v-16.8c0-3.9-2.7-8-6.3-9.6l-5-2.9c-1.7-1.2-4-1.9-6.3-1.9c-1.9,0-3.7,0.4-5.1,1.3l-14.5,8.4
		c-2,1.2-5.6,3.8-6.3,6.6l-0.1,0.3l-1.8,6.7l-7.2,26.9c-0.2,0.9-1,1.5-1.9,1.5c-0.2,0-0.3,0-0.5-0.1l-5.7-1.5
		c-0.5-0.1-0.9-0.5-1.2-0.9c-0.3-0.5-0.3-1-0.2-1.5l4.3-16c0.7-2.6,0-4.2-0.7-5.1c-0.8-1-2.1-1.6-3.4-1.6c-1.1,0-2.2,0.3-3.3,1
		l-16,9.2c-0.3,0.2-0.6,0.3-1,0.3c-0.7,0-1.4-0.4-1.7-1l-3-5.1c-0.3-0.5-0.3-1-0.2-1.5s0.5-1,0.9-1.2l16-9.2
		c3.2-1.8,3.2-4.2,3.1-5.1c-0.1-0.9-0.8-3.2-4.3-4.2l-16-4.3c-0.5-0.1-0.9-0.5-1.2-0.9c-0.3-0.5-0.3-1-0.2-1.5l1.5-5.7
		c0.2-0.9,1-1.5,1.9-1.5c0.2,0,0.3,0,0.5,0.1l26.9,7.2l7.1,1.9c0.4,0.1,0.9,0.2,1.4,0.2c2,0,4.9-0.9,7.4-2.4l14.5-8.4
		c3.4-2,5.5-6.5,4.8-10.4c0-0.2,0-0.9,0-2.7c0-1.8,0-2.5,0-2.7c0.7-3.9-1.4-8.4-4.8-10.4l-14.5-8.4c-2.5-1.4-5.4-2.4-7.4-2.4
		c-0.5,0-1,0.1-1.4,0.2l-4,1.1l-3,0.8l-26.9,7.2c-0.2,0-0.3,0.1-0.5,0.1c-0.9,0-1.7-0.6-1.9-1.5l-1.5-5.7c-0.1-0.5-0.1-1,0.2-1.5
		c0.3-0.5,0.7-0.8,1.2-0.9l16-4.3c3.5-1,4.2-3.2,4.3-4.2c0.1-0.9,0.1-3.3-3.1-5.1l-16-9.2c-0.5-0.3-0.8-0.7-0.9-1.2
		c-0.1-0.5-0.1-1.1,0.2-1.5l3-5.1c0.4-0.6,1-1,1.7-1c0.4,0,0.7,0.1,1,0.3l16,9.2c1.2,0.7,2.3,1,3.3,1c1.4,0,2.6-0.6,3.4-1.6
		c0.7-0.9,1.4-2.5,0.7-5.1l-4.3-16c-0.1-0.5-0.1-1,0.2-1.5s0.7-0.8,1.2-0.9l5.7-1.5c0.2,0,0.3-0.1,0.5-0.1c0.9,0,1.7,0.6,1.9,1.5
		l7.2,26.9l0.5,2l1.4,5.1c0.7,2.7,4.3,5.4,6.3,6.6l14.5,8.4c1.5,0.8,3.2,1.3,5.1,1.3c2.3,0,4.6-0.7,6.3-1.9l5-2.9
		c3.6-1.6,6.3-5.7,6.3-9.6v-16.8c0-2.3-0.5-6.8-2.5-8.8l-3.1-3.1l-2.1-2.1l-19.7-19.7c-0.4-0.4-0.6-0.9-0.6-1.4c0-0.5,0.2-1,0.6-1.4
		l4.2-4.2c0.4-0.4,0.9-0.6,1.4-0.6c0.5,0,1,0.2,1.4,0.6l11.7,11.7c1.3,1.3,2.7,2,4.2,2c2.2,0,4.5-1.7,4.5-5.6V97.8c0-1.1,0.9-2,2-2
		H176.4 M173.5,222.4c12.1,0,21.9-9.8,21.9-21.9s-9.8-21.9-21.9-21.9s-21.9,9.8-21.9,21.9S161.4,222.4,173.5,222.4 M176.4,92.8h-5.9
		c-2.8,0-5,2.3-5,5v18.5c0,1.7-0.6,2.6-1.5,2.6c-0.6,0-1.3-0.4-2-1.1L150.2,106c-1-1-2.3-1.5-3.5-1.5c-1.3,0-2.6,0.5-3.5,1.5
		l-4.2,4.2c-1.9,1.9-1.9,5.1,0,7.1l19.7,19.7c1.9,1.9,4.3,4.3,5.2,5.2c0.9,0.9,1.7,3.9,1.7,6.7v16.8c0,2.8-2.1,5.9-4.6,6.9l-5.3,3
		c-1.2,1-3,1.4-4.7,1.4c-1.3,0-2.6-0.3-3.6-0.9l-14.5-8.4c-2.4-1.4-4.6-3.5-4.9-4.8c-0.3-1.2-1.2-4.4-1.9-7.1l-7.2-26.9
		c-0.6-2.2-2.6-3.7-4.8-3.7c-0.4,0-0.9,0.1-1.3,0.2l-5.7,1.5c-2.7,0.7-4.2,3.5-3.5,6.1l4.3,16c0.5,1.9,0,2.9-1.2,2.9
		c-0.5,0-1.1-0.2-1.8-0.6l-16-9.2c-0.8-0.5-1.6-0.7-2.5-0.7c-1.7,0-3.4,0.9-4.3,2.5l-3,5.1c-1.4,2.4-0.6,5.5,1.8,6.8l16,9.2
		c2.4,1.4,2.2,3.1-0.5,3.8l-16,4.3c-2.7,0.7-4.2,3.5-3.5,6.1l1.5,5.7c0.6,2.2,2.6,3.7,4.8,3.7c0.4,0,0.9-0.1,1.3-0.2l26.9-7.2
		c2.7-0.7,5.8-1.6,7.1-1.9c0.2,0,0.4-0.1,0.6-0.1c1.4,0,3.9,0.8,5.9,2l14.5,8.4c2.4,1.4,3.9,4.7,3.3,7.4c0,0-0.1,0.3-0.1,3.1
		c0,2.8,0.1,3.1,0.1,3.1c0.5,2.7-1,6-3.3,7.4l-14.5,8.4c-2,1.2-4.5,2-5.9,2c-0.2,0-0.5,0-0.6-0.1c-1.2-0.3-4.4-1.2-7.1-1.9
		l-26.9-7.2c-0.4-0.1-0.9-0.2-1.3-0.2c-2.2,0-4.2,1.5-4.8,3.7l-1.5,5.7c-0.7,2.7,0.9,5.4,3.5,6.1l16,4.3c2.7,0.7,2.9,2.4,0.5,3.8
		l-16,9.2c-2.4,1.4-3.2,4.4-1.8,6.8l3,5.1c0.9,1.6,2.6,2.5,4.3,2.5c0.8,0,1.7-0.2,2.5-0.7l16-9.2c0.7-0.4,1.3-0.6,1.8-0.6
		c1.2,0,1.7,1.1,1.2,2.9l-4.3,16c-0.7,2.7,0.9,5.4,3.5,6.1l5.7,1.5c0.4,0.1,0.9,0.2,1.3,0.2c2.2,0,4.2-1.5,4.8-3.7l7.2-26.9
		c0.7-2.7,1.6-5.8,1.9-7.1s2.6-3.4,4.9-4.8l14.5-8.4c1-0.6,2.3-0.9,3.6-0.9c1.7,0,3.4,0.5,4.7,1.4l5.3,3c2.5,1.1,4.6,4.2,4.6,6.9
		v16.8c0,2.8-0.7,5.7-1.7,6.7c-0.9,0.9-3.2,3.2-5.2,5.2l-19.7,19.7c-1.9,1.9-1.9,5.1,0,7.1l4.2,4.2c1,1,2.3,1.5,3.5,1.5
		c1.3,0,2.6-0.5,3.5-1.5l11.7-11.7c0.8-0.8,1.5-1.1,2-1.1c0.9,0,1.5,0.9,1.5,2.6v18.5c0,2.8,2.3,5,5,5h5.9c2.8,0,5-2.3,5-5v-18.5
		c0-1.7,0.6-2.6,1.5-2.6c0.6,0,1.3,0.4,2,1.1l11.7,11.7c1,1,2.3,1.5,3.5,1.5c1.3,0,2.6-0.5,3.5-1.5l4.2-4.2c1.9-1.9,1.9-5.1,0-7.1
		l-19.7-19.7c-1.9-1.9-4.3-4.3-5.2-5.2c-0.9-0.9-1.7-3.9-1.7-6.7v-16.8c0-2.8,2.1-5.9,4.6-6.9l5.3-3c1.2-0.9,3-1.4,4.7-1.4
		c1.3,0,2.6,0.3,3.6,0.9l14.5,8.4c2.4,1.4,4.6,3.5,4.9,4.8c0.3,1.2,1.2,4.4,1.9,7.1l7.2,26.9c0.6,2.2,2.6,3.7,4.8,3.7
		c0.4,0,0.9-0.1,1.3-0.2l5.7-1.5c2.7-0.7,4.2-3.5,3.5-6.1l-4.3-16c-0.5-1.9,0-2.9,1.2-2.9c0.5,0,1.1,0.2,1.8,0.6l16,9.2
		c0.8,0.5,1.6,0.7,2.5,0.7c1.7,0,3.4-0.9,4.3-2.5l3-5.1c1.4-2.4,0.6-5.5-1.8-6.8l-16-9.2c-2.4-1.4-2.2-3.1,0.5-3.8l16-4.3
		c2.7-0.7,4.2-3.5,3.5-6.1l-1.5-5.7c-0.6-2.2-2.6-3.7-4.8-3.7c-0.4,0-0.9,0.1-1.3,0.2l-26.9,7.2c-2.7,0.7-5.8,1.6-7.1,1.9
		c-0.2,0-0.4,0.1-0.6,0.1c-1.4,0-3.9-0.8-5.9-2l-14.5-8.4c-2.4-1.4-3.9-4.7-3.3-7.4c0,0,0.1-0.3,0.1-3.1c0-2.8-0.1-3.1-0.1-3.1
		c-0.5-2.7,1-6,3.3-7.4l14.5-8.4c2-1.2,4.5-2,5.9-2c0.2,0,0.5,0,0.6,0.1c1.2,0.3,4.4,1.2,7.1,1.9l26.9,7.2c0.4,0.1,0.9,0.2,1.3,0.2
		c2.2,0,4.2-1.5,4.8-3.7l1.5-5.7c0.7-2.7-0.9-5.4-3.5-6.1l-16-4.3c-2.7-0.7-2.9-2.4-0.5-3.8l16-9.2c2.4-1.4,3.2-4.4,1.8-6.8l-3-5.1
		c-0.9-1.6-2.6-2.5-4.3-2.5c-0.8,0-1.7,0.2-2.5,0.7l-16,9.2c-0.7,0.4-1.3,0.6-1.8,0.6c-1.2,0-1.7-1.1-1.2-2.9l4.3-16
		c0.7-2.7-0.9-5.4-3.5-6.1l-5.7-1.5c-0.4-0.1-0.9-0.2-1.3-0.2c-2.2,0-4.2,1.5-4.8,3.7l-7.2,26.9c-0.7,2.7-1.6,5.8-1.9,7.1
		s-2.6,3.4-4.9,4.8l-14.5,8.4c-1,0.6-2.3,0.9-3.6,0.9c-1.7,0-3.4-0.5-4.7-1.4l-5.3-3c-2.5-1.1-4.6-4.2-4.6-6.9v-16.8
		c0-2.8,0.7-5.7,1.7-6.7c0.9-0.9,3.2-3.2,5.2-5.2l19.7-19.7c1.9-1.9,1.9-5.1,0-7.1l-4.2-4.2c-1-1-2.3-1.5-3.5-1.5
		c-1.3,0-2.6,0.5-3.5,1.5L185,117.8c-0.8,0.8-1.5,1.1-2,1.1c-0.9,0-1.5-0.9-1.5-2.6V97.8C181.4,95.1,179.2,92.8,176.4,92.8
		L176.4,92.8z M173.5,219.4c-10.5,0-18.9-8.5-18.9-18.9s8.5-18.9,18.9-18.9c10.5,0,18.9,8.5,18.9,18.9S183.9,219.4,173.5,219.4
		L173.5,219.4z"/>
</g>
</svg>
