<svg version="1.1" id="Lager_1" xmlns="http://www.w3.org/2000/svg" xmlns:xlink="http://www.w3.org/1999/xlink" x="0px" y="0px"
	 viewBox="0 0 256 256" style="enable-background:new 0 0 256 256;" xml:space="preserve">
<path d="M255.9,45.3v-4.7c0-8.4-6.9-15.2-15.4-15.2H15.3C6.8,25.5,0,32.3,0,40.7c0,0,0,0,0,0v6.4l0,0v167.5
	c-0.1,8.3,6.4,15.1,14.7,15.3H241c8.3,0,15-6.8,15-15.1L255.9,45.3z M13.3,216.6c-0.5-0.5-0.7-1.2-0.7-1.9V47.2h108.2v170.2H15
	C14.4,217.4,13.7,217.1,13.3,216.6z M241,217.4H135.2V47.2h108.1v167.7C243.3,216.2,242.3,217.3,241,217.4z"/>
</svg>
